PathFileType	4	(X/Y/Z)	/Users/niels/Desktop/University/Third Semester/Perception and Action/Exam/Gymnastics Motion Tracking/Code for Gym Tracking/Scripts/Analyzed Data/Start Salto/st_salto_bad_id9_3_Sports2D/st_salto_bad_id9_3_Sports2D_px_person00.trc
DataRate	CameraRate	NumFrames	NumMarkers	Units	OrigDataRate	OrigDataStartFrame	OrigNumFrames
29.825581395348838	29.825581395348838	11	22	m	29.825581395348838	129	172
Frame#	Time	Hip			RHip			RKnee			RAnkle			RBigToe			RSmallToe			RHeel			LHip			LKnee			LAnkle			LBigToe			LSmallToe			LHeel			Neck			Head			Nose			RShoulder			RElbow			RWrist			LShoulder			LElbow			LWrist		
		X1	Y1	Z1	X2	Y2	Z2	X3	Y3	Z3	X4	Y4	Z4	X5	Y5	Z5	X6	Y6	Z6	X7	Y7	Z7	X8	Y8	Z8	X9	Y9	Z9	X10	Y10	Z10	X11	Y11	Z11	X12	Y12	Z12	X13	Y13	Z13	X14	Y14	Z14	X15	Y15	Z15	X16	Y16	Z16	X17	Y17	Z17	X18	Y18	Z18	X19	Y19	Z19	X20	Y20	Z20	X21	Y21	Z21	X22	Y22	Z22
129	4.325146198830409	1.4568181038221815	-0.4534454625450449	0.0	1.4658058282183377	-0.4438518820821176	0.0	1.5661347627056983	-0.5654501542777093	0.0	1.6157457229320924	-0.7191468962107977	0.0	1.6723963202230758	-0.7547611420694291	0.0	1.6663331398776886	-0.7592334109238228	0.0	1.6071263179456665	-0.7390025197230611	0.0	1.4431976311849088	-0.46280140436994455	0.0	1.5544144070647357	-0.5715580211307549	0.0	1.6118987466691839	-0.7089141140089045	0.0	1.6763278192609234	-0.7311299903259122	0.0	1.6630760728595453	-0.7350283893035416	0.0	1.5978733400429777	-0.7334464649843786	0.0	1.3646329765202496	-0.28866815258548945	0.0	1.3887247086570265	-0.2075670674647116	0.0	1.4143612590413326	-0.25218918331742146	0.0	1.369419710047281	-0.28399851112752206	0.0	1.330092340446886	-0.3338646668234537	0.0	1.4081338320865677	-0.37500866944970046	0.0	1.3275154469539328	-0.31826341744607345	0.0	1.2812344542903555	-0.3955868084007732	0.0	1.3222345231386616	-0.4250365272705109	0.0
130	4.358674463937622	1.4669737206421463	-0.46412695215639704	0.0	1.478242893914428	-0.45415452589269206	0.0	1.5700586350409909	-0.5807599866130704	0.0	1.6149890526156938	-0.7355168771998589	0.0	1.6716633465650446	-0.7698409516069297	0.0	1.666639431143114	-0.7745402117393484	0.0	1.6057830979207135	-0.7555656544478141	0.0	1.451178205748089	-0.47384063914826186	0.0	1.5569081908599032	-0.5868970692468469	0.0	1.609701686132578	-0.7263735089359078	0.0	1.6736041928214787	-0.7491812223289215	0.0	1.659442012656256	-0.7531717968711624	0.0	1.5942702857034379	-0.7507844204742654	0.0	1.3789186519606456	-0.29645861780735483	0.0	1.404340347353194	-0.2142159330833792	0.0	1.4290113084634324	-0.2598243354605756	0.0	1.3863486788845611	-0.29182631598258446	0.0	1.342068293159649	-0.34399376417672217	0.0	1.4160588393633755	-0.3893409594955133	0.0	1.3411008745482862	-0.3241580294351605	0.0	1.2889347182197	-0.3998980073200709	0.0	1.3252571161805076	-0.4364853220177732	0.0
131	4.392202729044834	1.4768935530244187	-0.4757641261034533	0.0	1.4905634022498633	-0.4655799246937443	0.0	1.5744763441519565	-0.5962789150209988	0.0	1.6140032884942406	-0.7509863463784217	0.0	1.671166875505992	-0.7817727562057761	0.0	1.6670246228748513	-0.7869763789097767	0.0	1.604552036431623	-0.7710387456497175	0.0	1.4590466552737895	-0.4853844615495548	0.0	1.5597116753090101	-0.6021276717586754	0.0	1.607362481598272	-0.7426229653446721	0.0	1.6709546544901748	-0.7651332260360988	0.0	1.6558287618394876	-0.7686765142495523	0.0	1.5915647565724762	-0.7667032231363822	0.0	1.39334082174579	-0.3048249612410531	0.0	1.420370480578989	-0.22130148788011073	0.0	1.4438348246720165	-0.2675719021186866	0.0	1.404115179395135	-0.30065301871944206	0.0	1.3560362791242506	-0.3547933498034925	0.0	1.4256161660252293	-0.40520286667165717	0.0	1.355455147899602	-0.33011557306436135	0.0	1.298381048730469	-0.4049427206157449	0.0	1.3292116342853917	-0.4475257748039347	0.0
132	4.425730994152047	1.4865977575061755	-0.4880161698893016	0.0	1.5025323936951327	-0.4777732878887977	0.0	1.5793066010933718	-0.6117171714225582	0.0	1.6130684161852442	-0.7650857427746905	0.0	1.6705406146989152	-0.7908077347703836	0.0	1.6672059440559808	-0.7965561078081898	0.0	1.6037393099092485	-0.7848527148927801	0.0	1.4667727997536921	-0.49706605005698	0.0	1.5626632330355275	-0.6170687079870759	0.0	1.6050688423965844	-0.7572761173424123	0.0	1.6683855676662676	-0.7786304050952465	0.0	1.6522462002103697	-0.7811361963690759	0.0	1.5899634097316884	-0.780793626360108	0.0	1.407546775481655	-0.3136568979499094	0.0	1.4363546966923697	-0.22878265236720885	0.0	1.4584901887735604	-0.2752660441502298	0.0	1.4219070725897323	-0.3103343872258553	0.0	1.3715496414931365	-0.3662233374967436	0.0	1.4362867924197533	-0.4222177649908792	0.0	1.3701057747185217	-0.3362318785255991	0.0	1.3093246124507993	-0.41066155899391255	0.0	1.3339444653226167	-0.4579836106477989	0.0
133	4.45925925925926	1.4959732710241325	-0.5002353383028493	0.0	1.513855029973624	-0.49000297987727864	0.0	1.584183724917492	-0.6264613366798399	0.0	1.6124545701490811	-0.7774142842488883	0.0	1.6696562383232114	-0.7976818372480748	0.0	1.6670289186827347	-0.8037769034633766	0.0	1.6035423035099718	-0.796556920238581	0.0	1.4741530187341787	-0.508350588578495	0.0	1.5655347666111312	-0.6312491618596714	0.0	1.6031714264224788	-0.7700431855786214	0.0	1.6660025800753435	-0.789449116311878	0.0	1.6486734809219914	-0.7904869012712497	0.0	1.589447251211769	-0.7927830245118673	0.0	1.4211561715223646	-0.3227206866569751	0.0	1.4517305206891509	-0.236402370751389	0.0	1.4725691701542614	-0.2826567795019646	0.0	1.4387644093354581	-0.32047406677971196	0.0	1.387894265390637	-0.37809482437011194	0.0	1.4473629847810525	-0.4395580618911652	0.0	1.3844766539065634	-0.342571977658706	0.0	1.3212319103485723	-0.41691197435913996	0.0	1.3395869691498403	-0.4678015005734112	0.0
134	4.492787524366472	1.5048662331331186	-0.5117477583384996	0.0	1.5243351907506508	-0.5015299938095983	0.0	1.5887626434391957	-0.6400005232126348	0.0	1.6122847087327845	-0.7880338490297101	0.0	1.6688364380543124	-0.8034400758122795	0.0	1.6665714268717713	-0.8096300560651313	0.0	1.6039644401689843	-0.8062676626479639	0.0	1.4810017371813058	-0.5187835302732324	0.0	1.5683089515101762	-0.6442373361276247	0.0	1.6019855974765143	-0.7810595806243465	0.0	1.6639996792087444	-0.7976839020294909	0.0	1.6451850706781128	-0.7973354943524393	0.0	1.5896661999078594	-0.8027566376781494	0.0	1.434042634512344	-0.33156998404140436	0.0	1.4661118441614298	-0.24392902883110648	0.0	1.4858738685680686	-0.28945807692578207	0.0	1.4541503739328334	-0.33056394894202146	0.0	1.4045707360424526	-0.39011878651169096	0.0	1.4584044288984543	-0.45649840091345667	0.0	1.3981379585722398	-0.34917377486493806	0.0	1.333568592483108	-0.42359847083604324	0.0	1.3464257146855207	-0.47724211773091213	0.0
135	4.526315789473684	1.5131187607382481	-0.5220370884398634	0.0	1.5338380832442946	-0.5117988085462096	0.0	1.5929886727604754	-0.6520360352039319	0.0	1.6125089905925851	-0.7973431190450261	0.0	1.6684583970229827	-0.8090307712458776	0.0	1.6658545068601365	-0.8152338262192187	0.0	1.6048428481072636	-0.8146071228062483	0.0	1.4872181766814012	-0.5280109371165292	0.0	1.5712169616641012	-0.6557059236144743	0.0	1.6015743607044859	-0.7907070919731686	0.0	1.662411444952163	-0.8037332043446351	0.0	1.6418955958402592	-0.802837811149413	0.0	1.590045374546516	-0.810969076681925	0.0	1.4463394112495263	-0.3396107563799915	0.0	1.4793175498963225	-0.25121512523377415	0.0	1.4984159052486337	-0.29543922687543156	0.0	1.4681033152335377	-0.34011240982170815	0.0	1.4213974505873703	-0.4019529290126802	0.0	1.4693726268799225	-0.4727558994301012	0.0	1.4108097303480747	-0.3559577039475405	0.0	1.3459836375855136	-0.43066585073698643	0.0	1.3546206468410047	-0.4866934581932411	0.0
136	4.559844054580897	1.5206440281467244	-0.5308543795174296	0.0	1.5423367117356508	-0.5205379483070502	0.0	1.5971739254608484	-0.6624678680999558	0.0	1.6129686554210905	-0.8058156364392531	0.0	1.668464538725553	-0.8150653571023813	0.0	1.6645988176233366	-0.8215229840448344	0.0	1.6059198784963216	-0.822469178332463	0.0	1.4927811237863862	-0.5358280054166616	0.0	1.5745458561353964	-0.6654841290933349	0.0	1.6017536437094688	-0.7993437248852403	0.0	1.660988690966146	-0.8083691755304161	0.0	1.6388546549100877	-0.80849806495387	0.0	1.590120156165347	-0.8177227110968163	0.0	1.4583411427754962	-0.3463678266660172	0.0	1.4914292944127026	-0.2581544384867172	0.0	1.5104136072882504	-0.3005788629825591	0.0	1.481135948130196	-0.34880358647559945	0.0	1.4384931234297926	-0.4134130922093109	0.0	1.480601532273917	-0.48843024046828853	0.0	1.4223834927598447	-0.3627832624058742	0.0	1.3584410098504942	-0.4380989110989659	0.0	1.3642202506170276	-0.49653253817008974	0.0
137	4.593372319688109	1.5274369593766715	-0.5382799596496669	0.0	1.5499880998188063	-0.5279180242893741	0.0	1.6018478705911054	-0.6713908741510447	0.0	1.6135026306157645	-0.8137592374365767	0.0	1.6683995538284444	-0.8217433153375111	0.0	1.6625532247520491	-0.8291122579007977	0.0	1.606912891962039	-0.8307315957293367	0.0	1.4978071124739787	-0.5423557399560031	0.0	1.5784143093491232	-0.673672222911448	0.0	1.6022529103851304	-0.8071578077742669	0.0	1.6594169288102478	-0.812897465136775	0.0	1.636206927866464	-0.8160928570429261	0.0	1.5898102321134595	-0.8234076935039327	0.0	1.4704265910484755	-0.35169593600639987	0.0	1.5028267806616598	-0.2646544002804615	0.0	1.5222866636215961	-0.3050765425237824	0.0	1.4939856430370906	-0.35663699075729427	0.0	1.4561990070117325	-0.4246352889313476	0.0	1.4926633102260802	-0.5037320014798442	0.0	1.4329854634379477	-0.3695755199970581	0.0	1.371230269759263	-0.4459651861177353	0.0	1.3753172218425873	-0.5071031766136576	0.0
138	4.6269005847953215	1.5334172544519675	-0.5445785337920085	0.0	1.5569881525192222	-0.5345162064390687	0.0	1.6074483300295168	-0.6789176286387213	0.0	1.6140282608580894	-0.8210104362199713	0.0	1.6677580735271964	-0.8287591280378762	0.0	1.6599770557899656	-0.8380879947120525	0.0	1.6075544401692985	-0.8397714841042608	0.0	1.5025562829858639	-0.5480097433112745	0.0	1.5826505805499376	-0.6805173946167229	0.0	1.6028312771774218	-0.8139991596813941	0.0	1.6576152608384793	-0.8189855045865245	0.0	1.6343764138129064	-0.8272954095645194	0.0	1.5894450600773455	-0.8283646756276476	0.0	1.482825252267553	-0.35574811368937037	0.0	1.5139627490383067	-0.2705426406750175	0.0	1.534365688237595	-0.30918203008194045	0.0	1.5071253182985578	-0.3638478332386097	0.0	1.474678152297576	-0.4358234077752867	0.0	1.5059833958863222	-0.5186106339103201	0.0	1.4428747328484788	-0.37622860501815863	0.0	1.3846642570120034	-0.4542871822581262	0.0	1.387887799943138	-0.5184320374334833	0.0
139	4.660428849902535	1.5383878299506788	-0.5499176729676234	0.0	1.5633693860848898	-0.5408581279247151	0.0	1.6141201638031366	-0.6849809815708139	0.0	1.6145371156454593	-0.8269359797658337	0.0	1.6662314997030507	-0.8353167072291802	0.0	1.6575126477378936	-0.8477516942010365	0.0	1.6076403830774202	-0.8490993577598444	0.0	1.5072899135102575	-0.5531349386304689	0.0	1.586892519675115	-0.6861728827938519	0.0	1.6033427631599393	-0.8194068958218378	0.0	1.6557727063609105	-0.8276930453088486	0.0	1.6338275782281038	-0.8423294471646763	0.0	1.589509030647297	-0.8326807157179152	0.0	1.4954028319564519	-0.3587980981192926	0.0	1.5250990767958539	-0.27552546226974917	0.0	1.5465765693302187	-0.3130204485392669	0.0	1.5204550404803676	-0.370584545206905	0.0	1.4935951878612446	-0.4468711630133001	0.0	1.520566000203273	-0.5325629949493628	0.0	1.4522750908003055	-0.3824243253963704	0.0	1.3987473485185755	-0.4628043589977047	0.0	1.4016178102073544	-0.5300145425182374	0.0
